<?xml version="1.0" encoding="UTF-8" standalone="no"?>
<svg
   width="48"
   height="48"
   viewBox="0 0 12.7 12.7"
   version="1.1"
   id="svg5"
   sodipodi:docname="org.kde.Tok.svg"
   inkscape:version="1.1-dev (0b979dea14, 2021-01-07)"
   xmlns:inkscape="http://www.inkscape.org/namespaces/inkscape"
   xmlns:sodipodi="http://sodipodi.sourceforge.net/DTD/sodipodi-0.dtd"
   xmlns:xlink="http://www.w3.org/1999/xlink"
   xmlns="http://www.w3.org/2000/svg"
   xmlns:svg="http://www.w3.org/2000/svg">
  <sodipodi:namedview
     id="namedview7"
     pagecolor="#ffffff"
     bordercolor="#666666"
     borderopacity="1.0"
     objecttolerance="10.0"
     gridtolerance="10.0"
     guidetolerance="10.0"
     inkscape:pageshadow="2"
     inkscape:pageopacity="0.0"
     inkscape:pagecheckerboard="0"
     inkscape:document-units="px"
     showgrid="true"
     inkscape:zoom="14.125"
     inkscape:cx="13.946903"
     inkscape:cy="34.690265"
     inkscape:window-width="1920"
     inkscape:window-height="1016"
     inkscape:window-x="0"
     inkscape:window-y="0"
     inkscape:window-maximized="1"
     inkscape:current-layer="layer1"
     inkscape:snap-smooth-nodes="true"
     inkscape:snap-bbox="true"
     inkscape:snap-center="true">
    <inkscape:grid
       type="xygrid"
       id="grid824"
       empspacing="4"
       empcolor="#ff3f3f"
       empopacity="0.25098039" />
  </sodipodi:namedview>
  <defs
     id="defs2">
    <linearGradient
       inkscape:collect="always"
       id="linearGradient1358">
      <stop
         style="stop-color:#f6d32d;stop-opacity:1"
         offset="0"
         id="stop1354" />
      <stop
         style="stop-color:#f9f06b;stop-opacity:1"
         offset="1"
         id="stop1356" />
    </linearGradient>
    <linearGradient
       inkscape:collect="always"
       xlink:href="#linearGradient1358"
       id="linearGradient1360"
       x1="1.0583333"
       y1="11.641666"
       x2="11.641666"
       y2="1.0583333"
       gradientUnits="userSpaceOnUse" />
  </defs>
  <g
     inkscape:label="Ebene 1"
     inkscape:groupmode="layer"
     id="layer1">
    <circle
       style="fill:url(#linearGradient1360);fill-opacity:1;stroke:#f5c211;stroke-width:0;stroke-linecap:round;stroke-linejoin:round;stroke-miterlimit:2;stroke-dasharray:none"
       id="path1096"
       cx="6.3499999"
       cy="6.3499999"
       r="5.2916665" />
    <path
       id="path1096-5"
       style="fill:#e5a50a;fill-opacity:0.5;stroke:none;stroke-width:0;stroke-linecap:round;stroke-linejoin:round;stroke-miterlimit:2;stroke-dasharray:none;stroke-opacity:0.30000001"
       d="M 43.974609 23.25 A 19.999999 19.999999 0 0 1 24 43 A 19.999999 19.999999 0 0 1 4.0488281 23.5 A 19.999999 19.999999 0 0 0 4 24 A 19.999999 19.999999 0 0 0 24 44 A 19.999999 19.999999 0 0 0 44 24 A 19.999999 19.999999 0 0 0 43.974609 23.25 z "
       transform="scale(0.26458333)" />
    <path
       style="color:#000000;fill:#ffffff;stroke-linecap:round;stroke-linejoin:round;stroke-miterlimit:2;stroke:#5e5c64;stroke-opacity:0.1;stroke-width:0.26458333;stroke-dasharray:none"
       d="m 6.35,5.2924479 c -1.4171102,0 -2.5742188,1.1571086 -2.5742188,2.5742188 -2e-7,1.4171103 1.1571084,2.5742193 2.5742188,2.5742193 1.4171103,0 2.5742189,-1.157109 2.5742187,-2.5742193 C 8.9242187,6.4495565 7.7671102,5.292448 6.35,5.2924479 Z m 0,0.7929688 c 0.9881363,0 1.78125,0.7931137 1.78125,1.78125 1e-7,0.9881364 -0.7931136,1.7792969 -1.78125,1.7792969 -0.9881364,0 -1.7812502,-0.7911605 -1.78125,-1.7792969 0,-0.9881363 0.7931137,-1.78125 1.78125,-1.78125 z"
       id="path4195" />
    <path
       style="color:#000000;fill:#ffffff;stroke-linecap:round;stroke-linejoin:round;stroke-miterlimit:2;stroke:#5e5c64;stroke-opacity:0.1;stroke-width:0.26458333;stroke-dasharray:none"
       d="M 6.3496094,1.7207031 A 0.39687499,0.39687499 0 0 0 5.953125,2.1171875 V 4.2324219 A 0.39687499,0.39687499 0 0 0 6.3496094,4.6308594 0.39687499,0.39687499 0 0 0 6.7460937,4.2324219 V 2.1171875 A 0.39687499,0.39687499 0 0 0 6.3496094,1.7207031 Z"
       id="path4661" />
    <path
       style="color:#000000;fill:#ffffff;stroke-linecap:round;stroke-linejoin:round;stroke-miterlimit:2;stroke:#5e5c64;stroke-opacity:0.1;stroke-width:0.26458333;stroke-dasharray:none"
       d="M 9.7167969,3.4941406 8.1875,5.0097656 a 0.39687499,0.39687499 0 0 0 -0.00195,0.5605469 0.39687499,0.39687499 0 0 0 0.5605469,0.00391 l 1.5292972,-1.515625 a 0.39687499,0.39687499 0 0 0 0.002,-0.5605468 0.39687499,0.39687499 0 0 0 -0.5605471,-0.00391 z"
       id="path4663" />
    <path
       style="color:#000000;fill:#ffffff;stroke-linecap:round;stroke-linejoin:round;stroke-miterlimit:2;stroke:#5e5c64;stroke-opacity:0.1;stroke-width:0.26458333;stroke-dasharray:none"
       d="m 2.7363281,3.3984375 a 0.39687499,0.39687499 0 0 0 -0.28125,0.1152344 0.39687499,0.39687499 0 0 0 0,0.5625 L 3.953125,5.5722656 a 0.39687499,0.39687499 0 0 0 0.5605469,0 0.39687499,0.39687499 0 0 0 0,-0.5605469 L 3.0175781,3.5136719 a 0.39687499,0.39687499 0 0 0 -0.28125,-0.1152344 z"
       id="path4665" />
  </g>
</svg>
