<?xml version="1.0" encoding="UTF-8"?>
<svg xmlns="http://www.w3.org/2000/svg" xmlns:xlink="http://www.w3.org/1999/xlink" width="48px" height="48px" viewBox="0 0 48 48" version="1.1">
<defs>
<linearGradient id="linear0" gradientUnits="userSpaceOnUse" x1="30.232689" y1="260.487457" x2="22.754166" y2="253.008942" gradientTransform="matrix(3.779527,0,0,3.779527,-75.999988,-946.519553)">
<stop offset="0" style="stop-color:rgb(0%,82.745099%,72.156864%);stop-opacity:1;"/>
<stop offset="0.500214" style="stop-color:rgb(11.764706%,75.294119%,81.568629%);stop-opacity:1;"/>
<stop offset="1" style="stop-color:rgb(23.921569%,68.235296%,91.37255%);stop-opacity:1;"/>
</linearGradient>
</defs>
<g id="surface1094">
<path style=" stroke:none;fill-rule:nonzero;fill:url(#linear0);" d="M 24 4 C 35.046875 4 44 12.953125 44 24 C 44 35.046875 35.046875 44 24 44 C 12.953125 44 4 35.046875 4 24 C 4 12.953125 12.953125 4 24 4 Z M 24 4 "/>
<path style=" stroke:none;fill-rule:nonzero;fill:rgb(14.117648%,12.156863%,19.215687%);fill-opacity:0.1;" d="M 4.011719 23.5 C 4.007812 23.667969 4 23.832031 4 24 C 4 35.078125 12.921875 44 24 44 C 35.078125 44 44 35.078125 44 24 C 44 23.832031 43.992188 23.667969 43.988281 23.5 C 43.722656 34.347656 34.914062 43 24 43 C 13.085938 43 4.277344 34.347656 4.011719 23.5 Z M 4.011719 23.5 "/>
<path style=" stroke:none;fill-rule:nonzero;fill:rgb(0%,0%,0%);fill-opacity:0.2;" d="M 15.125 20.394531 C 14.683594 20.097656 14.140625 19.992188 13.621094 20.097656 C 13.101562 20.203125 12.644531 20.511719 12.351562 20.953125 C 11.742188 21.871094 11.988281 23.109375 12.902344 23.722656 C 13.757812 24.292969 14.597656 24.550781 15.363281 24.828125 C 16.128906 25.109375 16.828125 25.414062 16.972656 25.507812 C 17.414062 25.804688 17.953125 25.910156 18.476562 25.804688 C 18.996094 25.699219 19.453125 25.390625 19.746094 24.949219 C 20.355469 24.027344 20.101562 22.789062 19.183594 22.179688 C 18.328125 21.609375 17.5 21.351562 16.734375 21.074219 C 15.96875 20.792969 15.269531 20.488281 15.125 20.394531 Z M 15.125 20.394531 "/>
<path style=" stroke:none;fill-rule:nonzero;fill:rgb(96.862745%,96.862745%,96.862745%);fill-opacity:1;" d="M 14.125 19.394531 C 13.683594 19.097656 13.140625 18.992188 12.621094 19.097656 C 12.101562 19.203125 11.644531 19.511719 11.351562 19.953125 C 10.742188 20.871094 10.988281 22.109375 11.902344 22.722656 C 12.757812 23.292969 13.597656 23.550781 14.363281 23.828125 C 15.128906 24.109375 15.828125 24.414062 15.972656 24.507812 C 16.414062 24.804688 16.953125 24.910156 17.476562 24.804688 C 17.996094 24.699219 18.453125 24.390625 18.746094 23.949219 C 19.355469 23.027344 19.101562 21.789062 18.183594 21.179688 C 17.328125 20.609375 16.5 20.351562 15.734375 20.074219 C 14.96875 19.792969 14.269531 19.488281 14.125 19.394531 Z M 14.125 19.394531 "/>
<path style=" stroke:none;fill-rule:nonzero;fill:rgb(0%,0%,0%);fill-opacity:0.2;" d="M 17.78125 13.1875 C 17.289062 13.375 16.886719 13.75 16.667969 14.230469 C 16.210938 15.234375 16.652344 16.421875 17.65625 16.878906 L 21.28125 18.53125 C 22.285156 18.992188 23.46875 18.554688 23.933594 17.550781 C 24.390625 16.546875 23.949219 15.359375 22.941406 14.902344 L 19.316406 13.242188 C 18.832031 13.019531 18.28125 13 17.78125 13.1875 Z M 17.78125 13.1875 "/>
<path style=" stroke:none;fill-rule:nonzero;fill:rgb(96.862745%,96.862745%,96.862745%);fill-opacity:1;" d="M 16.78125 12.1875 C 16.289062 12.375 15.886719 12.75 15.667969 13.230469 C 15.210938 14.234375 15.652344 15.421875 16.65625 15.878906 L 20.28125 17.53125 C 21.285156 17.992188 22.472656 17.554688 22.933594 16.550781 C 23.390625 15.546875 22.949219 14.359375 21.941406 13.902344 L 18.320312 12.238281 C 17.832031 12.019531 17.28125 12 16.78125 12.1875 Z M 16.78125 12.1875 "/>
<path style=" stroke:none;fill-rule:nonzero;fill:rgb(0%,0%,0%);fill-opacity:0.2;" d="M 28.679688 17.5 C 28.148438 17.464844 27.628906 17.644531 27.230469 17.996094 C 24.0625 20.773438 19.949219 24.027344 18.792969 29.230469 C 18.773438 29.320312 18.757812 29.410156 18.75 29.503906 C 18.550781 31.929688 19.90625 33.980469 21.570312 35.164062 C 23.234375 36.351562 25.226562 36.921875 27.164062 36.847656 C 27.1875 36.847656 27.210938 36.847656 27.230469 36.847656 C 31.480469 36.546875 35.4375 34.015625 37.648438 30.460938 C 38.230469 29.523438 37.941406 28.292969 37.003906 27.707031 C 36.066406 27.125 34.835938 27.414062 34.25 28.351562 C 32.777344 30.722656 29.714844 32.640625 26.972656 32.847656 C 26.015625 32.875 24.730469 32.507812 23.886719 31.910156 C 23.078125 31.332031 22.769531 30.738281 22.796875 29.929688 C 23.644531 26.503906 26.691406 23.785156 29.867188 21 C 30.695312 20.269531 30.777344 19.007812 30.050781 18.179688 C 29.703125 17.777344 29.207031 17.535156 28.679688 17.5 Z M 28.679688 17.5 "/>
<path style=" stroke:none;fill-rule:nonzero;fill:rgb(96.862745%,96.862745%,96.862745%);fill-opacity:1;" d="M 27.679688 16.5 C 27.148438 16.464844 26.628906 16.644531 26.230469 16.996094 C 23.0625 19.773438 18.949219 23.027344 17.792969 28.230469 C 17.773438 28.320312 17.757812 28.410156 17.75 28.503906 C 17.550781 30.929688 18.90625 32.980469 20.570312 34.164062 C 22.234375 35.351562 24.226562 35.921875 26.164062 35.847656 C 26.1875 35.847656 26.210938 35.847656 26.230469 35.847656 C 30.480469 35.546875 34.4375 33.015625 36.648438 29.460938 C 37.230469 28.523438 36.941406 27.292969 36.003906 26.707031 C 35.066406 26.125 33.835938 26.414062 33.253906 27.351562 C 31.78125 29.722656 28.71875 31.640625 25.972656 31.847656 C 25.019531 31.871094 23.730469 31.507812 22.886719 30.910156 C 22.078125 30.332031 21.769531 29.738281 21.796875 28.929688 C 22.644531 25.503906 25.691406 22.785156 28.867188 20 C 29.695312 19.269531 29.777344 18.007812 29.050781 17.179688 C 28.703125 16.777344 28.207031 16.535156 27.679688 16.5 Z M 27.679688 16.5 "/>
</g>
</svg>
