<?xml version="1.0" encoding="UTF-8"?>
<svg xmlns="http://www.w3.org/2000/svg" xmlns:xlink="http://www.w3.org/1999/xlink" width="16px" height="16px" viewBox="0 0 16 16" version="1.1">
<g id="surface1073">
<path style=" stroke:none;fill-rule:nonzero;fill:rgb(13.725491%,14.901961%,16.078432%);fill-opacity:1;" d="M 3.183594 6.0625 C 2.714844 5.75 2.085938 5.875 1.773438 6.34375 C 1.460938 6.808594 1.585938 7.441406 2.054688 7.753906 C 2.730469 8.203125 3.371094 8.417969 3.714844 8.644531 C 3.9375 8.796875 4.214844 8.851562 4.480469 8.800781 C 4.746094 8.746094 4.980469 8.589844 5.132812 8.367188 C 5.28125 8.140625 5.335938 7.863281 5.28125 7.597656 C 5.230469 7.332031 5.070312 7.097656 4.84375 6.949219 C 4.167969 6.496094 3.523438 6.289062 3.183594 6.0625 Z M 3.183594 6.0625 "/>
<path style=" stroke:none;fill-rule:nonzero;fill:rgb(13.725491%,14.901961%,16.078432%);fill-opacity:1;" d="M 4.578125 2.371094 C 4.320312 2.457031 4.109375 2.640625 3.988281 2.878906 C 3.734375 3.378906 3.933594 3.988281 4.429688 4.246094 L 5.9375 5.015625 C 6.433594 5.265625 7.046875 5.070312 7.300781 4.570312 C 7.425781 4.332031 7.449219 4.050781 7.363281 3.792969 C 7.28125 3.535156 7.101562 3.320312 6.859375 3.199219 L 5.351562 2.4375 C 5.113281 2.3125 4.835938 2.289062 4.578125 2.371094 Z M 4.578125 2.371094 "/>
<path style=" stroke:none;fill-rule:nonzero;fill:rgb(13.725491%,14.901961%,16.078432%);fill-opacity:1;" d="M 10.285156 4.585938 C 10.015625 4.566406 9.75 4.660156 9.546875 4.835938 C 7.929688 6.25 5.839844 7.910156 5.25 10.558594 C 5.238281 10.605469 5.230469 10.652344 5.226562 10.699219 C 5.125 11.933594 5.820312 12.980469 6.667969 13.585938 C 7.515625 14.1875 8.53125 14.46875 9.515625 14.433594 C 9.527344 14.433594 9.535156 14.433594 9.546875 14.433594 C 11.710938 14.28125 13.726562 12.996094 14.851562 11.183594 C 15.152344 10.707031 15.003906 10.082031 14.527344 9.78125 C 14.050781 9.484375 13.421875 9.628906 13.125 10.105469 C 12.375 11.316406 10.8125 12.292969 9.414062 12.394531 C 8.925781 12.40625 8.277344 12.226562 7.847656 11.921875 C 7.441406 11.632812 7.285156 11.328125 7.292969 10.925781 C 7.722656 9.175781 9.269531 7.785156 10.890625 6.363281 C 11.308594 5.996094 11.351562 5.355469 10.984375 4.933594 C 10.808594 4.726562 10.554688 4.601562 10.285156 4.585938 Z M 10.285156 4.585938 "/>
</g>
</svg>
